<?xml version="1.0" encoding="UTF-8"?>
<svg version="1.1" xmlns="http://www.w3.org/2000/svg" width="626" height="626">
<path d="M0 0 C206.58 0 413.16 0 626 0 C626 206.58 626 413.16 626 626 C419.42 626 212.84 626 0 626 C0 419.42 0 212.84 0 0 Z " fill="#FEFDFD" transform="translate(0,0)"/>
<path d="M0 0 C3.95981857 3.5378504 7.67003247 7.58808054 10.64306641 11.99926758 C13.73772918 14.25118385 17.14907245 13.72020637 20.82421875 13.61865234 C21.64767288 13.60966415 22.47112701 13.60067596 23.3195343 13.59141541 C25.96344952 13.5613842 28.60645807 13.51176707 31.25 13.45849609 C48.06994675 13.14512006 63.5954943 13.69013746 79.8125 18.77099609 C80.8526123 19.08915283 81.89272461 19.40730957 82.96435547 19.73510742 C84.97564045 20.35278471 86.98536174 20.97558652 88.99316406 21.60449219 C90.98097372 22.2168524 92.98406691 22.77972201 94.9921875 23.32177734 C114.47051708 28.82652266 133.40914797 42.35150368 148.5625 55.39599609 C149.49191406 56.19005859 150.42132812 56.98412109 151.37890625 57.80224609 C176.08939782 79.52273382 194.54010882 113.04068168 196.8203125 146.13818359 C197.65590876 167.27017867 189.46719256 189.07306692 175.1875 204.64599609 C173.33970787 206.59277708 171.45828074 208.49479884 169.5625 210.39599609 C168.86640625 211.11529297 168.1703125 211.83458984 167.453125 212.57568359 C150.43742709 228.99781064 125.5241146 236.46801516 102.3359375 237.61865234 C101.60632813 237.65619629 100.87671875 237.69374023 100.125 237.73242188 C98.70119209 237.79820943 97.27653718 237.84819447 95.8515625 237.87988281 C92.2204008 237.97611768 92.2204008 237.97611768 89.00366211 239.47875977 C86.93647998 242.22881588 86.11479468 245.25410111 85.16796875 248.51318359 C84.95561081 249.21853241 84.74325287 249.92388123 84.52445984 250.65060425 C82.16463793 258.56718316 80.01040073 266.54157934 77.875 274.52099609 C77.28853719 276.70600005 76.70110593 278.8907308 76.11161804 281.07492065 C75.58440064 283.02918954 75.06028296 284.98429391 74.53637695 286.93945312 C73.63749077 290.12983433 72.6399092 293.26198785 71.5625 296.39599609 C67.29098815 294.80157019 63.31354515 292.75364247 59.296875 290.61474609 C57.84671453 289.85104861 56.39609347 289.08822526 54.94506836 288.32617188 C53.81051712 287.73017181 53.81051712 287.73017181 52.65304565 287.12213135 C38.42148606 279.66668312 24.2172381 272.94344992 9.13037109 267.36206055 C6.5573216 266.39404792 4.01607864 265.36486078 1.47265625 264.32177734 C-11.09155011 259.27483933 -24.36662631 256.23259067 -37.625 253.64599609 C-38.63175781 253.44756104 -39.63851563 253.24912598 -40.67578125 253.04467773 C-57.47319614 249.90724498 -73.94029047 249.08609695 -91 249.20849609 C-93.05216394 249.21738381 -95.10432868 249.22608998 -97.15649414 249.23461914 C-157.50048775 249.55240389 -212.20953479 260.09946974 -264.4375 291.39599609 C-266.79936089 287.85320476 -267.72478062 284.31278288 -268.8203125 280.25537109 C-269.03944305 279.45496399 -269.25857361 278.65455688 -269.48434448 277.82989502 C-269.94602198 276.13606767 -270.40478285 274.44144304 -270.86083984 272.74609375 C-271.55689451 270.16676802 -272.268105 267.59195203 -272.98046875 265.01708984 C-273.42801706 263.36760332 -273.87466085 261.71787106 -274.3203125 260.06787109 C-274.63900803 258.92218658 -274.63900803 258.92218658 -274.96414185 257.75335693 C-276.16920595 253.20957814 -276.78784807 249.14096858 -276.4375 244.39599609 C-265.67160516 231.43241212 -237.87318802 228.84070016 -222.2109375 226.07177734 C-219.44167624 225.57583304 -216.68981208 225.04954502 -213.93359375 224.48974609 C-190.68235666 219.81713328 -167.39264736 216.49720936 -143.80737305 214.04516602 C-141.97833623 213.8549776 -140.1493156 213.66463345 -138.3203125 213.47412109 C-137.44722946 213.3832019 -136.57414642 213.29228271 -135.67460632 213.1986084 C-128.89070838 212.47755982 -122.17002752 211.49663263 -115.4375 210.39599609 C-113.82626694 210.16545952 -112.21431834 209.93984562 -110.6015625 209.72021484 C-98.61505648 208.05581997 -86.86123696 205.69097015 -75.06787109 202.98828125 C-72.74376898 202.4649592 -70.41671992 201.97473468 -68.08203125 201.50146484 C-27.0945341 192.95849584 13.01551303 171.90407923 37.5625 137.39599609 C36.84191406 137.95544922 36.12132812 138.51490234 35.37890625 139.09130859 C-16.21675809 178.04268157 -85.83342461 194.81862954 -149.60644531 186.81591797 C-167.03036591 184.23147994 -184.00507859 179.22593413 -200.8125 174.08349609 C-202.03710938 173.71804688 -203.26171875 173.35259766 -204.5234375 172.97607422 C-211.99875951 170.68358934 -218.89696744 167.97732801 -225.91259766 164.54370117 C-228.27870279 163.25805957 -228.27870279 163.25805957 -230.4375 163.39599609 C-229.90382813 163.72470703 -229.37015625 164.05341797 -228.8203125 164.39208984 C-219.63517066 170.25596067 -208.43762525 178.3957456 -203.4375 188.39599609 C-203.06789586 192.83124575 -203.01569991 195.43735953 -204.8125 199.52099609 C-215.76262945 211.51399501 -234.36457889 215.71926285 -249.921875 216.59130859 C-268.99671691 217.30314496 -286.14211679 211.39660338 -300.4375 198.39599609 C-312.3762795 186.97093344 -318.13427886 174.00209853 -322.4375 158.39599609 C-322.7675 157.40599609 -323.0975 156.41599609 -323.4375 155.39599609 C-325.60893035 122.06454024 -316.67375523 93.79477292 -294.84765625 68.38037109 C-280.95179101 52.65305298 -264.30498903 38.81316109 -245.4375 29.39599609 C-244.7775 29.39599609 -244.1175 29.39599609 -243.4375 29.39599609 C-243.4375 28.73599609 -243.4375 28.07599609 -243.4375 27.39599609 C-255.66035306 30.33853479 -266.47924478 34.21740538 -277.4375 40.39599609 C-278.42234375 40.93998047 -279.4071875 41.48396484 -280.421875 42.04443359 C-287.79369486 46.41213033 -293.84068403 52.02938609 -299.95654297 57.96630859 C-301.256919 59.22166666 -302.58170865 60.45163251 -303.91015625 61.67724609 C-323.89109402 80.56575164 -337.89255724 109.27949988 -338.83740234 136.75390625 C-339.24414425 164.66062659 -325.78370637 187.41343301 -306.89355469 206.99658203 C-304.56214887 209.36080354 -302.20103681 211.68686605 -299.8125 213.99365234 C-297.49186368 216.34100652 -295.44998437 218.78256153 -293.4375 221.39599609 C-304.2863468 218.11758546 -313.00496841 210.74302127 -321.4375 203.39599609 C-322.06269531 202.85587891 -322.68789063 202.31576172 -323.33203125 201.75927734 C-337.28679524 188.78494174 -346.66391651 170.58371924 -351.4375 152.39599609 C-351.91703125 150.70216797 -351.91703125 150.70216797 -352.40625 148.97412109 C-356.32089877 133.53300652 -355.14222385 117.73424531 -351.4375 102.39599609 C-351.24414062 101.52201172 -351.05078125 100.64802734 -350.8515625 99.74755859 C-345.07135916 77.15221825 -328.60719363 57.17446131 -310.4375 43.39599609 C-309.27154297 42.50654297 -309.27154297 42.50654297 -308.08203125 41.59912109 C-286.25255354 25.65665496 -260.48960275 15.90050631 -233.6875 12.77099609 C-220.02328219 11.15697902 -210.21785705 6.75309597 -199.13085938 -1.3671875 C-144.8160713 -41.03828271 -53.03499593 -44.88638979 0 0 Z " fill="#221F20" transform="translate(400.4375,117.60400390625)"/>
<path d="M0 0 C1.27824646 -0.00267883 2.55649292 -0.00535767 3.87347412 -0.00811768 C25.24386288 0.00156321 45.32082401 1.71133651 66.125 6.5 C67.80142578 6.86037354 67.80142578 6.86037354 69.51171875 7.22802734 C89.72836156 11.57731423 109.38004353 18.24880156 128.25 26.6875 C129.13187988 27.07905273 130.01375977 27.47060547 130.92236328 27.87402344 C140.08763912 32.12052438 146.93879476 36.80896899 151.375 46.125 C154.64543754 60.84196893 150.55833 78.39162967 143.4921875 91.48046875 C142.125 93.5 142.125 93.5 140.125 94.5 C134.22536296 95.27836291 130.68246597 92.92367018 125.8125 90 C117.11673587 84.98710596 108.31200284 80.53871112 99.125 76.5 C98.37589355 76.16758301 97.62678711 75.83516602 96.85498047 75.49267578 C82.69549015 69.28768831 68.12598398 65.15884028 53.125 61.5 C52.36960937 61.31421387 51.61421875 61.12842773 50.8359375 60.93701172 C-12.13602511 46.16170948 -83.54725464 56.28183257 -142.875 80.5 C-144.1724306 81.00971669 -145.47063276 81.51747309 -146.76953125 82.0234375 C-153.43006875 84.6308828 -159.99809693 87.39102773 -166.48828125 90.3984375 C-169.59116684 91.83053854 -172.72688642 93.17079649 -175.875 94.5 C-176.00455078 93.22382813 -176.00455078 93.22382813 -176.13671875 91.921875 C-177.03294567 84.19294557 -178.47486135 76.88961163 -180.5 69.375 C-185.12620644 51.73560397 -185.12620644 51.73560397 -182.0234375 44.51953125 C-177.15120032 37.80777596 -166.70750861 35.11542336 -159.3125 32.25 C-158.31234863 31.86158936 -157.31219727 31.47317871 -156.28173828 31.07299805 C-121.90091046 17.83533065 -85.54974083 6.62079116 -48.75 2.81542969 C-46.5744389 2.57673871 -44.4030277 2.29981493 -42.234375 2.00488281 C-28.18960568 0.15322718 -14.15023532 0.01757396 0 0 Z " fill="#221F20" transform="translate(319.875,383.5)"/>
<path d="M0 0 C2.3343349 0.0106447 4.6678868 0.00009139 7.00219727 -0.01269531 C17.04985769 -0.02237565 26.73052491 0.75459463 36.66821289 2.26074219 C37.59174561 2.39609375 38.51527832 2.53144531 39.46679688 2.67089844 C50.49705165 4.38125466 61.17576731 7.09674809 71.85571289 10.32324219 C72.9970166 10.66371582 74.13832031 11.00418945 75.31420898 11.35498047 C76.37333496 11.6861084 77.43246094 12.01723633 78.52368164 12.35839844 C79.94136841 12.79937866 79.94136841 12.79937866 81.38769531 13.24926758 C83.66821289 14.26074219 83.66821289 14.26074219 85.66821289 17.26074219 C78.97194397 16.44990146 72.55112373 14.82823346 66.02172852 13.16503906 C52.93135843 9.93847116 40.19925369 8.93272213 26.7734375 9 C24.23746766 9.01071365 21.7022082 9.00004445 19.16625977 8.98730469 C-14.29399492 8.9535192 -45.99750598 18.86517308 -71.33178711 41.26074219 C-72.39639415 42.16497364 -73.4615 43.06861815 -74.52709961 43.97167969 C-96.12840677 62.63207389 -106.1669578 88.23041985 -108.33178711 116.26074219 C-108.76234401 122.92364184 -109.07440465 129.58911793 -109.33178711 136.26074219 C-110.32178711 136.26074219 -111.31178711 136.26074219 -112.33178711 136.26074219 C-113.33462598 132.29320006 -114.33038419 128.32433313 -115.30834961 124.35058594 C-115.84905551 122.15969291 -116.40981103 119.99366029 -117.04272461 117.82714844 C-122.269535 99.00305595 -116.6891847 78.39367326 -107.42749023 61.89355469 C-102.3825021 53.22444852 -96.24012473 45.56066124 -89.75024414 37.9375 C-88.57698317 36.55058841 -87.43278617 35.13914792 -86.29663086 33.72167969 C-74.4642169 19.2318678 -53.80440071 10.39998277 -36.33178711 5.07324219 C-35.51307129 4.82300293 -34.69435547 4.57276367 -33.85083008 4.31494141 C-22.51900629 0.98364199 -11.77212306 -0.06361326 0 0 Z " fill="#F4F3F4" transform="translate(290.331787109375,96.7392578125)"/>
<path d="M0 0 C43.56075714 0.67572183 77.08987417 18.70465329 107.86938477 49.29418945 C125.11655731 67.17203149 139.71821867 91.69696855 139.3125 117.0625 C139.31572266 118.07376953 139.31894531 119.08503906 139.32226562 120.12695312 C139.21322166 135.52197769 133.75300736 147.21067195 126.4375 160.4375 C126.07390381 161.09959473 125.71030762 161.76168945 125.33569336 162.44384766 C121.80927093 168.68126166 117.81154283 173.6828539 112 178 C111.34 177.67 110.68 177.34 110 177 C110.556875 176.37996094 111.11375 175.75992188 111.6875 175.12109375 C126.52828333 157.8987658 132.6620965 139.05278803 131.21875 116.32910156 C128.59125688 88.35333772 107.77097944 63.29671926 87 46 C68.60795399 31.19034046 47.86402332 19.23740104 25.62109375 11.32421875 C23.23195281 10.45051996 20.8661715 9.50969578 18.53125 8.5 C14.75769799 6.89707525 10.95833565 5.57797753 7.0625 4.3125 C6.03672852 3.97508789 6.03672852 3.97508789 4.99023438 3.63085938 C3.32773889 3.08444477 1.66399952 2.54181709 0 2 C0 1.34 0 0.68 0 0 Z " fill="#F4F2F3" transform="translate(443,140)"/>
<path d="M0 0 C6.22961977 -0.05059881 12.4591868 -0.08569062 18.68896484 -0.10986328 C20.8094277 -0.11993751 22.92987661 -0.13359733 25.05029297 -0.15087891 C28.09345943 -0.17506489 31.13644266 -0.18646869 34.1796875 -0.1953125 C35.13181122 -0.20563507 36.08393494 -0.21595764 37.06491089 -0.22659302 C37.94567291 -0.22674408 38.82643494 -0.22689514 39.73388672 -0.22705078 C40.51110077 -0.231492 41.28831482 -0.23593323 42.08908081 -0.24050903 C44 0 44 0 46 2 C37.15655712 2.86419736 28.32499031 3.26256009 19.44726562 3.50268555 C17.26678377 3.56204311 15.08653837 3.62731235 12.90625 3.69335938 C3.26868009 3.97363481 -6.35870342 4.05124888 -16 4 C-16 3.67 -16 3.34 -16 3 C-14.92878906 2.95101563 -13.85757812 2.90203125 -12.75390625 2.8515625 C-11.35674361 2.77654706 -9.9596095 2.7009987 -8.5625 2.625 C-7.85544922 2.5940625 -7.14839844 2.563125 -6.41992188 2.53125 C-4.60760812 2.42719371 -2.80182012 2.22080108 -1 2 C-0.67 1.34 -0.34 0.68 0 0 Z " fill="#5B5758" transform="translate(286,363)"/>
<path d="M0 0 C23.69674185 5.04511278 23.69674185 5.04511278 27 10 C21.02352146 9.27657481 15.27882898 7.93875098 9.4375 6.5 C1.27313648 4.48812502 1.27313648 4.48812502 -7 3 C-7 2.67 -7 2.34 -7 2 C-4.69 2 -2.38 2 0 2 C0 1.34 0 0.68 0 0 Z " fill="#D2D1D1" transform="translate(349,104)"/>
<path d="M0 0 C0.33 0.66 0.66 1.32 1 2 C1.66 2 2.32 2 3 2 C0.23509707 9.44296144 -4.15821732 15.63187538 -10 21 C-10.598125 21.598125 -11.19625 22.19625 -11.8125 22.8125 C-12.204375 23.204375 -12.59625 23.59625 -13 24 C-13.66 23.67 -14.32 23.34 -15 23 C-14.41992188 22.34515625 -13.83984375 21.6903125 -13.2421875 21.015625 C-7.58018738 14.40061496 -3.55317865 7.98420144 0 0 Z " fill="#D7D3D4" transform="translate(568,294)"/>
<path d="M0 0 C0.66 0 1.32 0 2 0 C3.28968723 3.95160167 3.18380085 7.95274821 3.1875 12.0625 C3.19974609 12.78244141 3.21199219 13.50238281 3.22460938 14.24414062 C3.23519011 18.0426247 3.15755655 19.76366518 1 23 C0 22 0 22 -0.11352539 19.86694336 C-0.10828857 18.95050049 -0.10305176 18.03405762 -0.09765625 17.08984375 C-0.09443359 16.10048828 -0.09121094 15.11113281 -0.08789062 14.09179688 C-0.07951172 13.05087891 -0.07113281 12.00996094 -0.0625 10.9375 C-0.05798828 9.89271484 -0.05347656 8.84792969 -0.04882812 7.77148438 C-0.03699913 5.1809334 -0.02051689 2.59049441 0 0 Z " fill="#343132" transform="translate(594,256)"/>
<path d="M0 0 C6.99881643 2.97449698 12.55656212 10.01101852 17 16 C10.32568743 14.17973293 7.38499301 10.65795037 3.25 5.3125 C2.63640625 4.52488281 2.0228125 3.73726563 1.390625 2.92578125 C0 1 0 1 0 0 Z " fill="#322E2F" transform="translate(90,323)"/>
<path d="M0 0 C4.29 0.99 8.58 1.98 13 3 C9.00085664 4.99957168 8.24793852 5.22052788 4.125 4.6875 C2.81789063 4.52507812 2.81789063 4.52507812 1.484375 4.359375 C-1.35241075 3.94902234 -4.18093183 3.51930203 -7 3 C-7 2.67 -7 2.34 -7 2 C-4.69 2 -2.38 2 0 2 C0 1.34 0 0.68 0 0 Z " fill="#C5C5C5" transform="translate(349,104)"/>
<path d="M0 0 C7.67028737 0.62915097 15.33667323 1.29099142 23 2 C23 2.33 23 2.66 23 3 C20.62543835 3.1963696 18.25079981 3.38231294 15.875 3.5625 C15.20984375 3.61857422 14.5446875 3.67464844 13.859375 3.73242188 C9.73871946 4.03541125 6.00264728 4.08677219 2 3 C1.34 2.01 0.68 1.02 0 0 Z " fill="#292526" transform="translate(130,330)"/>
<path d="M0 0 C0.99 0.33 1.98 0.66 3 1 C3 1.66 3 2.32 3 3 C3.86625 3.103125 4.7325 3.20625 5.625 3.3125 C9.16683123 4.03398414 11.84312042 5.27123261 15 7 C15 7.66 15 8.32 15 9 C9.00067626 7.1668733 3.55079437 4.92678249 -2 2 C-1.34 1.34 -0.68 0.68 0 0 Z " fill="#1D191A" transform="translate(423,387)"/>
<path d="M0 0 C0 0.33 0 0.66 0 1 C-2.74759711 1.55791819 -5.49669032 2.0967227 -8.25 2.625 C-9.41595703 2.86476563 -9.41595703 2.86476563 -10.60546875 3.109375 C-16.42997175 4.20458069 -16.42997175 4.20458069 -19.546875 3.0859375 C-20.02640625 2.72757812 -20.5059375 2.36921875 -21 2 C-13.87049629 0.09879901 -7.36259293 -0.22424141 0 0 Z " fill="#1C1819" transform="translate(258,441)"/>
<path d="M0 0 C0.33 0.66 0.66 1.32 1 2 C1.66 2 2.32 2 3 2 C1.54955729 6.10958767 -0.51110752 9.43258745 -3 13 C-3.93045933 10.44855176 -4.08564091 9.25993522 -3.22265625 6.640625 C-2.83980469 5.85171875 -2.45695313 5.0628125 -2.0625 4.25 C-1.68222656 3.45078125 -1.30195312 2.6515625 -0.91015625 1.828125 C-0.60980469 1.22484375 -0.30945313 0.6215625 0 0 Z " fill="#E0DDDE" transform="translate(568,294)"/>
<path d="M0 0 C0 0.33 0 0.66 0 1 C-4.7749209 1.95498418 -9.15139376 2.24243031 -14 2 C-14.66 1.34 -15.32 0.68 -16 0 C-10.42289352 -1.06795656 -5.60563042 -0.82622671 0 0 Z " fill="#2A2829" transform="translate(225,338)"/>
<path d="M0 0 C-1.92123253 2.00476438 -3.4301731 2.93016331 -6.19921875 3.26953125 C-8.52191423 3.310674 -10.70077487 3.34177671 -13 3 C-13.66 2.34 -14.32 1.68 -15 1 C-9.91913204 0.15318867 -5.15171623 -0.09038099 0 0 Z " fill="#141213" transform="translate(272,331)"/>
<path d="M0 0 C0.89203125 0.00902344 1.7840625 0.01804687 2.703125 0.02734375 C3.37859375 0.03894531 4.0540625 0.05054688 4.75 0.0625 C4.75 0.3925 4.75 0.7225 4.75 1.0625 C-4.66002278 3.35862756 -4.66002278 3.35862756 -9.25 3.0625 C-9.25 2.4025 -9.25 1.7425 -9.25 1.0625 C-6.09493858 0.12630187 -3.28413498 -0.0432123 0 0 Z " fill="#161213" transform="translate(222.25,371.9375)"/>
<path d="M0 0 C0.33 0.66 0.66 1.32 1 2 C0.22265625 4.1640625 0.22265625 4.1640625 -0.9375 6.625 C-1.31777344 7.44226563 -1.69804687 8.25953125 -2.08984375 9.1015625 C-2.39019531 9.72804687 -2.69054687 10.35453125 -3 11 C-4.078125 9.19921875 -4.078125 9.19921875 -5 7 C-2.80487805 1.40243902 -2.80487805 1.40243902 0 0 Z " fill="#2C2829" transform="translate(194,169)"/>
<path d="M0 0 C3 1 3 1 4 3 C4.039992 4.99960012 4.04346799 7.00047242 4 9 C3.01 8.67 2.02 8.34 1 8 C0.67 5.36 0.34 2.72 0 0 Z " fill="#353334" transform="translate(47,259)"/>
<path d="M0 0 C0.66 0.33 1.32 0.66 2 1 C0.84414715 4.91211733 -0.35534962 7.8745041 -3 11 C-4 8 -4 8 -3.22265625 5.95703125 C-2.83980469 5.24933594 -2.45695312 4.54164063 -2.0625 3.8125 C-1.68222656 3.09707031 -1.30195312 2.38164062 -0.91015625 1.64453125 C-0.60980469 1.10183594 -0.30945312 0.55914062 0 0 Z " fill="#292929" transform="translate(58,197)"/>
<path d="M0 0 C1.98 0 3.96 0 6 0 C6 0.66 6 1.32 6 2 C4.73392393 2.53229326 3.46189588 3.05044544 2.1875 3.5625 C1.47980469 3.85253906 0.77210938 4.14257812 0.04296875 4.44140625 C-2 5 -2 5 -5 4 C-3.35 3.67 -1.7 3.34 0 3 C0 2.01 0 1.02 0 0 Z " fill="#1B1718" transform="translate(187,456)"/>
<path d="M0 0 C2.25 0.25 2.25 0.25 4 1 C1.03 3.475 1.03 3.475 -2 6 C-2.66 5.34 -3.32 4.68 -4 4 C-2.25 1.9375 -2.25 1.9375 0 0 Z " fill="#2A292A" transform="translate(215,140)"/>
<path d="M0 0 C-0.33 0.66 -0.66 1.32 -1 2 C-4.98866127 2.99716532 -8.0323069 3.0502717 -12 2 C-12 1.67 -12 1.34 -12 1 C-7.9472484 0.01751476 -4.16138263 -0.08159574 0 0 Z " fill="#141313" transform="translate(268,388)"/>
<path d="M0 0 C-4.95 -0.33 -9.9 -0.66 -15 -1 C-15 -1.33 -15 -1.66 -15 -2 C-8.60342338 -2.94375721 -5.98096962 -2.99048481 0 0 Z " fill="#2D2B2C" transform="translate(368,389)"/>
<path d="M0 0 C-0.33 0.66 -0.66 1.32 -1 2 C-3.875 2.75 -3.875 2.75 -7 3 C-7.99 2.34 -8.98 1.68 -10 1 C-6.61981469 -0.04005702 -3.5219721 -0.08004482 0 0 Z " fill="#151314" transform="translate(250,391)"/>
<path d="M0 0 C5.57142857 5.14285714 5.57142857 5.14285714 6 9 C1.3125 5.484375 1.3125 5.484375 0 4 C0 2.68 0 1.36 0 0 Z " fill="#282525" transform="translate(83,314)"/>
<path d="M0 0 C-2.63904371 1.41377341 -5.07120629 2.37240135 -8 3 C-8.33 2.34 -8.66 1.68 -9 1 C-5.64919071 -1.10976881 -3.77897651 -1.0497157 0 0 Z " fill="#1B1718" transform="translate(375,308)"/>
<path d="M0 0 C-1.29299694 2.88437779 -2.65941363 4.87219421 -5 7 C-5 6.34 -5 5.68 -5 5 C-5.66 4.67 -6.32 4.34 -7 4 C-2.25 0 -2.25 0 0 0 Z " fill="#CAC6C7" transform="translate(438,255)"/>
<path d="M0 0 C0.66 0.33 1.32 0.66 2 1 C1.74438677 3.3431213 1.40729228 5.67843403 1 8 C0.01 8.495 0.01 8.495 -1 9 C-2.0326802 6.21176345 -2.04509293 5.1322726 -1.0625 2.25 C-0.711875 1.5075 -0.36125 0.765 0 0 Z " fill="#2F2E2F" transform="translate(84,220)"/>
</svg>
